,
.   http://www.scenetime.com/signup.php  ---&gt;  Hottest scene tracker on the net !!!  

    Join Now   http://www.scenetime.com/signup.php

    seed back for speed


 


  
            
*******************************************************************************
              Beginners.2010.LIMITED.480p.BRRip.XviD.AC3-PRESTiGE
*******************************************************************************

-------------------------------------------------------------------------------
                              General Information
-------------------------------------------------------------------------------

TiTLE............: Beginners.2010.LIMITED.480p.BRRip.XviD.AC3-PRESTiGE

iMDB.............: http://www.imdb.com/title/tt1532503/

GENRE............: Comedy | Drama

LANGUAGE.........: English 

FORMAT...........: AVi

SOURCE...........: 720p.BluRay.x264-MHD MANY THANKS!!!

FiLE SiZE........: 1.93 GB

SAMPLE iNCLUDED..: Yes

SUBS.............: NoNE

DURATiON.........: 1h 44mn

ENCODED by.......: [b][color=maroon]akosipalos[/color][/b]


ViDEO iNFO:

ID                               : 0
Format                           : MPEG-4 Visual
Format profile                   : Advanced Simple@L5
Format settings, BVOP            : 2
Format settings, QPel            : No
Format settings, GMC             : No warppoints
Format settings, Matrix          : Default (H.263)
Codec ID                         : XVID
Codec ID/Hint                    : XviD
Duration                         : 1h 44mn
Bit rate                         : 2 184 Kbps
Width                            : 720 pixels
Height                           : 384 pixels
Display aspect ratio             : 1.875
Frame rate                       : 23.976 fps
Color space                      : YUV
Chroma subsampling               : 4:2:0
Bit depth                        : 8 bits
Scan type                        : Progressive
Compression mode                 : Lossy
Bits/(Pixel*Frame)               : 0.329
Stream size                      : 1.59 GiB (83%)
Writing library                  : XviD 1.2.1 (UTC 2008-12-04)


AUDiO iNFO:

ID                               : 1
Format                           : AC-3
Format/Info                      : Audio Coding 3
Mode extension                   : CM (complete main)
Codec ID                         : 2000
Duration                         : 1h 44mn
Bit rate mode                    : Constant
Bit rate                         : 448 Kbps
Channel(s)                       : 6 channels
Channel positions                : Front: L C R, Side: L R, LFE
Sampling rate                    : 48.0 KHz
Bit depth                        : 16 bits
Compression mode                 : Lossy
Stream size                      : 334 MiB (17%)
Alignment                        : Aligned on interleaves
Interleave, duration             : 64 ms (1.54 video frames)
Interleave, preload duration     : 192 ms
Title                            : T2_Audio - English


-------------------------------------------------------------------------------
                                 PLOT:
-------------------------------------------------------------------------------


A young man is rocked by two announcements from his elderly father: that he has terminal cancer, and that he has a young male lover. 

 
-------------------------------------------------------------------------------
                                 CAST:
-------------------------------------------------------------------------------


Ewan McGregor 

Christopher Plummer

Mlanie Laurent


-------------------------------------------------------------------------------
                               SCREENS:
-------------------------------------------------------------------------------


[img]http://i824.photobucket.com/albums/zz161/akosipalos/2-88.png[/img]

[img]http://i824.photobucket.com/albums/zz161/akosipalos/1-108.png[/img]

[img]http://i824.photobucket.com/albums/zz161/akosipalos/4-83.png[/img]

[img]http://i824.photobucket.com/albums/zz161/akosipalos/3-88.png[/img]

[img]http://i824.photobucket.com/albums/zz161/akosipalos/5-71.png[/img]


-------------------------------------------------------------------------------
                             Release Notes
-------------------------------------------------------------------------------

WE DONT RELEASE EVERYTHING TO OTHERS SITES YOU WANT MORE OF OUR STUFF COME FIND US AT .......

WE ARE LOOKING FOR SUPPLIERS BLURAY CAM R5 PRE RETAIL DVD GOT SOMETHING WE MIGHT LIKE WHEN YOU FIND US TELL US.......



ENCODER'S - ANYTHING AT ALL EMAIL US AT..... prestige@hushmail.me

** ** ** ** ** ** ** ** **

PRESTiGE is the level of respect at which one is regarded by others....RIzE Above Or Sink Below...


-------------------------------------------------------------------------------
                                 GREETZ:
-------------------------------------------------------------------------------


[b]| Twisted | Bigguy | CTFX | Whitestag13 | Jungledave | PA4U2C | mtyy | floridajoe | marsby | cld | Stoner | Rock | Ulap | rizal | mannilim | musikera | centserick2 | AMB | RiZAL Team RG | rock3r | canislupus | sickie | fun2knytz and To All Encoders Past And Present...[/b]


[img]http://i824.photobucket.com/albums/zz161/akosipalos/PRESTiGE-3.png[/img]


[b][color=red]PRESTiGE[/color] is the level of respect at which one is regarded by others....RIzE Above Or Sink Below...[/b]


-------------------------------------------------------------------------------
Generated with Cool NFO Creator - http://fly.to/coolbeans
-------------------------------------------------------------------------------
[/pre]